:FULLY-SPECIFIED
:FORCE-ALL-JOINTS-BE-3DOF
:DEGREES
340
root 9.38428 16.6417 12.01 6.05225 10.8059 -0.606931
lfemur 9.37698 7.10955 -11.7751
ltibia 37.859 0 0
lfoot 10.2588 0.56803 0
ltoes -11.5112 0 0
rfemur -35.0395 1.63966 23.0526
rtibia 40.9447 0 0
rfoot -11.5736 1.4355 0
rtoes -13.4753 0 0
lowerback -6.6702 -4.4583 -2.82275
upperback -1.45331 -5.82966 3.18661
thorax 2.84131 -2.94463 4.3254
lowerneck -20.0756 -5.3453 -12.9276
upperneck 21.0674 -6.94421 13.7397
head 11.1129 -2.61928 6.14433
lclavicle 9.89886e-15 -4.77085e-15 0
lhumerus -28.8548 -23.4056 101.322
lradius 26.4326 0 0
lwrist 3.73136 0 0
lhand -10.6852 -23.7616 0
lfingers 7.12502 0 0
lthumb 15.3237 5.65039 0
rclavicle 9.89886e-15 -4.77085e-15 0
rhumerus -46.3173 4.8534 -81.3481
rradius 30.5561 0 0
rwrist -15.1476 0 0
rhand -27.9701 -24.4852 0
rfingers 7.12502 0 0
rthumb -1.35701 -54.4599 0
341
root 9.36913 16.6751 12.1566 6.05244 10.7572 -0.782284
lfemur 7.64901 7.01552 -11.733
ltibia 40.804 0 0
lfoot 10.4883 1.85299 0
ltoes -11.8039 0 0
rfemur -34.2705 1.8164 23.398
rtibia 40.5792 0 0
rfoot -11.9993 1.47849 0
rtoes -13.2396 0 0
lowerback -6.55969 -4.34251 -2.68501
upperback -1.43796 -5.68719 3.20164
thorax 2.76945 -2.87164 4.28765
lowerneck -20.1197 -5.43791 -13.0705
upperneck 20.9694 -7.06976 13.9459
head 11.1207 -2.6633 6.22464
lclavicle 1.2335e-14 5.30067e-16 0
lhumerus -28.915 -22.4216 101.013
lradius 25.3881 0 0
lwrist 3.51536 0 0
lhand -10.5781 -23.1377 0
lfingers 7.12502 0 0
lthumb 15.4268 6.26644 0
rclavicle 1.2335e-14 5.30067e-16 0
rhumerus -45.9557 4.86219 -81.3579
rradius 30.9302 0 0
rwrist -15.8649 0 0
rhand -28.1655 -23.8058 0
rfingers 7.12502 0 0
rthumb -1.54574 -53.7793 0
342
root 9.35399 16.7085 12.3031 6.05264 10.7085 -0.957637
lfemur 5.92103 6.92149 -11.6909
ltibia 43.7491 0 0
lfoot 10.7178 3.13794 0
ltoes -12.0966 0 0
rfemur -33.5016 1.99313 23.7435
rtibia 40.2137 0 0
rfoot -12.4251 1.52149 0
rtoes -13.0038 0 0
lowerback -6.44918 -4.22671 -2.54728
upperback -1.42262 -5.54472 3.21666
thorax 2.69759 -2.79864 4.2499
lowerneck -20.1638 -5.53051 -13.2133
upperneck 20.8715 -7.19532 14.1521
head 11.1286 -2.70732 6.30495
lclavicle 1.47712e-14 5.83098e-15 0
lhumerus -28.9752 -21.4377 100.704
lradius 24.3435 0 0
lwrist 3.29935 0 0
lhand -10.4711 -22.5137 0
lfingers 7.12502 0 0
lthumb 15.53 6.88249 0
rclavicle 1.47712e-14 5.83098e-15 0
rhumerus -45.5941 4.87099 -81.3678
rradius 31.3043 0 0
rwrist -16.5821 0 0
rhand -28.3609 -23.1263 0
rfingers 7.12502 0 0
rthumb -1.73447 -53.0986 0
343
root 9.33885 16.742 12.4496 6.05283 10.6598 -1.13299
lfemur 4.19306 6.82746 -11.6488
ltibia 46.6941 0 0
lfoot 10.9473 4.4229 0
ltoes -12.3893 0 0
rfemur -32.7326 2.16987 24.089
rtibia 39.8481 0 0
rfoot -12.8508 1.56448 0
rtoes -12.7681 0 0
lowerback -6.33867 -4.11091 -2.40954
upperback -1.40728 -5.40225 3.23169
thorax 2.62573 -2.72565 4.21215
lowerneck -20.2078 -5.62312 -13.3561
upperneck 20.7735 -7.32088 14.3584
head 11.1364 -2.75134 6.38526
lclavicle 1.72073e-14 1.11319e-14 0
lhumerus -29.0354 -20.4537 100.396
lradius 23.299 0 0
lwrist 3.08335 0 0
lhand -10.364 -21.8898 0
lfingers 7.12502 0 0
lthumb 15.6331 7.49854 0
rclavicle 1.72073e-14 1.11319e-14 0
rhumerus -45.2325 4.87978 -81.3777
rradius 31.6784 0 0
rwrist -17.2993 0 0
rhand -28.5563 -22.4469 0
rfingers 7.12502 0 0
rthumb -1.9232 -52.418 0
344
root 9.32969 16.7735 12.5843 6.10027 10.5311 -1.20822
lfemur 2.52591 6.94514 -11.7894
ltibia 48.6032 0 0
lfoot 9.80739 5.48887 0
ltoes -11.2966 0 0
rfemur -31.9668 2.31837 24.321
rtibia 39.2526 0 0
rfoot -12.8716 1.53063 0
rtoes -11.5228 0 0
lowerback -6.27812 -3.9689 -2.33513
upperback -1.43135 -5.21706 3.21553
thorax 2.54288 -2.63101 4.17606
lowerneck -20.0966 -5.66458 -13.3943
upperneck 20.6857 -7.37662 14.3763
head 11.0946 -2.78209 6.3857
lclavicle 1.80231e-14 1.14632e-14 0
lhumerus -29.5847 -20.3282 100.273
lradius 23.1462 0 0
lwrist 3.06791 0 0
lhand -10.2012 -21.3451 0
lfingers 7.12502 0 0
lthumb 15.7899 8.03052 0
rclavicle 1.80231e-14 1.14632e-14 0
rhumerus -45.0687 5.5705 -81.7788
rradius 32.3891 0 0
rwrist -18.1044 0 0
rhand -28.7717 -23.624 0
rfingers 7.12502 0 0
rthumb -2.1312 -53.5926 0
345
root 9.32054 16.805 12.719 6.1477 10.4024 -1.28345
lfemur 0.858767 7.06282 -11.9301
ltibia 50.5123 0 0
lfoot 8.66747 6.55483 0
ltoes -10.2038 0 0
rfemur -31.201 2.46687 24.5529
rtibia 38.6572 0 0
rfoot -12.8925 1.49679 0
rtoes -10.2776 0 0
lowerback -6.21756 -3.82689 -2.26072
upperback -1.45541 -5.03186 3.19937
thorax 2.46003 -2.53636 4.13998
lowerneck -19.9853 -5.70603 -13.4326
upperneck 20.5979 -7.43237 14.3941
head 11.0528 -2.81283 6.38615
lclavicle 1.8839e-14 1.17945e-14 0
lhumerus -30.1339 -20.2027 100.15
lradius 22.9934 0 0
lwrist 3.05246 0 0
lhand -10.0383 -20.8005 0
lfingers 7.12502 0 0
lthumb 15.9467 8.56249 0
rclavicle 1.8839e-14 1.17945e-14 0
rhumerus -44.9048 6.26122 -82.1799
rradius 33.0998 0 0
rwrist -18.9094 0 0
rhand -28.987 -24.801 0
rfingers 7.12502 0 0
rthumb -2.3392 -54.7672 0
346
root 9.31138 16.8366 12.8537 6.19514 10.2738 -1.35868
lfemur -0.80838 7.1805 -12.0708
ltibia 52.4215 0 0
lfoot 7.52755 7.6208 0
ltoes -9.1111 0 0
rfemur -30.4352 2.61537 24.7849
rtibia 38.0617 0 0
rfoot -12.9133 1.46294 0
rtoes -9.03234 0 0
lowerback -6.15701 -3.68488 -2.18631
upperback -1.47948 -4.84667 3.18321
thorax 2.37718 -2.44171 4.10389
lowerneck -19.8741 -5.74749 -13.4708
upperneck 20.5101 -7.48811 14.412
head 11.0111 -2.84358 6.38659
lclavicle 1.96549e-14 1.21259e-14 0
lhumerus -30.6832 -20.0772 100.027
lradius 22.8407 0 0
lwrist 3.03702 0 0
lhand -9.87548 -20.2558 0
lfingers 7.12502 0 0
lthumb 16.1035 9.09447 0
rclavicle 1.96549e-14 1.21259e-14 0
rhumerus -44.7409 6.95195 -82.581
rradius 33.8105 0 0
rwrist -19.7145 0 0
rhand -29.2024 -25.9781 0
rfingers 7.12502 0 0
rthumb -2.5472 -55.9417 0
347
root 9.30222 16.8681 12.9883 6.24257 10.1451 -1.43392
lfemur -2.47553 7.29817 -12.2114
ltibia 54.3306 0 0
lfoot 6.38764 8.68677 0
ltoes -8.01836 0 0
rfemur -29.6695 2.76387 25.0169
rtibia 37.4662 0 0
rfoot -12.9342 1.42909 0
rtoes -7.78709 0 0
lowerback -6.09646 -3.54288 -2.1119
upperback -1.50354 -4.66148 3.16704
thorax 2.29432 -2.34707 4.0678
lowerneck -19.7629 -5.78894 -13.509
upperneck 20.4224 -7.54385 14.4299
head 10.9693 -2.87433 6.38703
lclavicle 2.04707e-14 1.24572e-14 0
lhumerus -31.2325 -19.9518 99.9034
lradius 22.6879 0 0
lwrist 3.02158 0 0
lhand -9.71263 -19.7111 0
lfingers 7.12502 0 0
lthumb 16.2603 9.62645 0
rclavicle 2.04707e-14 1.24572e-14 0
rhumerus -44.5771 7.64267 -82.9821
rradius 34.5212 0 0
rwrist -20.5196 0 0
rhand -29.4178 -27.1552 0
rfingers 7.12502 0 0
rthumb -2.7552 -57.1163 0
348
root 9.29307 16.8996 13.123 6.29 10.0164 -1.50915
lfemur -4.14267 7.41585 -12.3521
ltibia 56.2397 0 0
lfoot 5.24772 9.75273 0
ltoes -6.92563 0 0
rfemur -28.9037 2.91237 25.2488
rtibia 36.8708 0 0
rfoot -12.955 1.39525 0
rtoes -6.54184 0 0
lowerback -6.0359 -3.40087 -2.03749
upperback -1.52761 -4.47628 3.15088
thorax 2.21147 -2.25242 4.03172
lowerneck -19.6516 -5.8304 -13.5473
upperneck 20.3346 -7.5996 14.4477
head 10.9275 -2.90507 6.38748
lclavicle 2.12865e-14 1.27885e-14 0
lhumerus -31.7817 -19.8263 99.7802
lradius 22.5351 0 0
lwrist 3.00613 0 0
lhand -9.54979 -19.1665 0
lfingers 7.12502 0 0
lthumb 16.4171 10.1584 0
rclavicle 2.12865e-14 1.27885e-14 0
rhumerus -44.4133 8.33339 -83.3832
rradius 35.2319 0 0
rwrist -21.3246 0 0
rhand -29.6331 -28.3322 0
rfingers 7.12502 0 0
rthumb -2.9632 -58.2909 0
